<?xml version="1.0" standalone="no"?>
<!DOCTYPE svg PUBLIC "-//W3C//DTD SVG 20010904//EN"
 "http://www.w3.org/TR/2001/REC-SVG-20010904/DTD/svg10.dtd">
<svg version="1.0" xmlns="http://www.w3.org/2000/svg"
 width="617.000000pt" height="536.000000pt" viewBox="0 0 617.000000 536.000000"
 preserveAspectRatio="xMidYMid meet">

<g transform="translate(0.000000,536.000000) scale(0.100000,-0.100000)"
fill="#000000" stroke="none">
<path d="M22 5327 c4 -18 3062 -5316 3068 -5317 5 0 3054 5284 3065 5313 7 16
-143 17 -3065 17 -2539 0 -3071 -2 -3068 -13z m5476 -386 c-1 -5 -543 -945
-1203 -2089 -904 -1567 -1203 -2078 -1211 -2069 -12 13 -2404 4154 -2404 4162
0 3 1085 5 2411 5 1415 0 2409 -4 2407 -9z"/>
</g>
</svg>
